<?xml version="1.0" encoding="utf-8"?>
<!-- Generator: Adobe Illustrator 18.1.1, SVG Export Plug-In . SVG Version: 6.00 Build 0)  -->
<svg version="1.1" id="Layer_1" xmlns="http://www.w3.org/2000/svg" xmlns:xlink="http://www.w3.org/1999/xlink" x="0px" y="0px"
	 viewBox="0 0 50 50" enable-background="new 0 0 50 50" xml:space="preserve">
<g id="Reload_-_Grey">
	<path d="M25.1,36c-6,0-10.9-4.9-10.9-10.9c0-6,4.9-10.9,10.9-10.9c2.6,0,4.9,0.9,6.8,2.4l-5.4,4.7l14.2,2.1l0-14.4l-5,4.3
		c-2.8-2.5-6.5-4.1-10.6-4.1c-8.8,0-15.9,7.1-15.9,15.9c0,8.8,7.1,15.9,15.9,15.9C32,41,37.8,36.6,40,30.5L35,29.8
		C33.2,33.5,29.5,36,25.1,36z"/>
</g>
</svg>
